<svg xmlns="http://www.w3.org/2000/svg" xmlns:xlink="http://www.w3.org/1999/xlink" viewBox="0 0 24 24"><g fill="none" stroke="currentColor" stroke-width="2" stroke-linecap="round" stroke-linejoin="round"><path d="M7.859 6H5.025A2.025 2.025 0 0 0 3 8.025v2.834c0 .537.213 1.052.593 1.432l6.116 6.116a2.025 2.025 0 0 0 2.864 0l2.834-2.834a2.025 2.025 0 0 0 0-2.864L9.29 6.593A2.025 2.025 0 0 0 7.859 6z"></path><path d="M17.573 18.407l2.834-2.834a2.025 2.025 0 0 0 0-2.864L13.29 5.593"></path><path d="M6 9h-.01"></path></g></svg>
