<svg xmlns="http://www.w3.org/2000/svg" xmlns:xlink="http://www.w3.org/1999/xlink" viewBox="0 0 16 16"><g fill="none"><path d="M2.25 5a1.25 1.25 0 1 0 0-2.5a1.25 1.25 0 0 0 0 2.5zm0 4.25a1.25 1.25 0 1 0 0-2.5a1.25 1.25 0 0 0 0 2.5zm4.75 3a1.25 1.25 0 1 1-2.5 0a1.25 1.25 0 0 1 2.5 0zM5.75 3a.75.75 0 0 0 0 1.5h8.5a.75.75 0 0 0 0-1.5h-8.5zM5 8a.75.75 0 0 1 .75-.75h8.5a.75.75 0 0 1 0 1.5h-8.5A.75.75 0 0 1 5 8zm4.25 3.5a.75.75 0 0 0 0 1.5h5a.75.75 0 0 0 0-1.5h-5z" fill="currentColor"></path></g></svg>
